<?xml version="1.0" standalone="no"?>
<!DOCTYPE svg PUBLIC "-//W3C//DTD SVG 20010904//EN"
 "http://www.w3.org/TR/2001/REC-SVG-20010904/DTD/svg10.dtd">
<svg version="1.0" xmlns="http://www.w3.org/2000/svg"
 width="96.000000pt" height="96.000000pt" viewBox="0 0 96.000000 96.000000"
 preserveAspectRatio="xMidYMid meet">
<metadata>
Created by potrace 1.11, written by Peter Selinger 2001-2013
</metadata>
<g transform="translate(0.000000,96.000000) scale(0.100000,-0.100000)"
fill="#000000" stroke="none">
<path d="M418 914 c-2 -1 -23 -4 -46 -5 -24 -2 -46 -7 -48 -11 -3 -5 -10 -6
-15 -3 -5 4 -9 1 -9 -5 0 -6 -5 -8 -10 -5 -6 4 -22 0 -35 -9 -13 -9 -31 -16
-40 -16 -8 0 -15 -5 -15 -11 0 -5 -4 -8 -9 -5 -26 16 -141 -151 -168 -244 -25
-86 -18 -213 17 -295 36 -87 54 -116 96 -160 113 -115 278 -150 478 -99 120
30 136 39 206 106 88 85 123 169 124 307 1 93 -6 128 -45 211 -20 44 -48 82
-86 118 -52 49 -107 87 -116 80 -2 -2 -11 3 -20 11 -10 7 -17 10 -17 7 0 -4
-10 -1 -22 6 -13 6 -30 14 -38 15 -22 5 -178 11 -182 7z m63 -299 c29 5 95
-32 119 -65 32 -44 37 -114 12 -160 -24 -45 -92 -81 -140 -75 -43 5 -59 19
-78 64 -8 20 -26 53 -40 73 -28 41 -27 86 5 118 22 24 95 60 101 50 3 -4 12
-6 21 -5z"/>
</g>
</svg>
